<?xml version="1.0" encoding="UTF-8"?><svg xmlns="http://www.w3.org/2000/svg" viewBox="0 0 85.35 51.14"><defs><style>.d{fill:#f47a45;}</style></defs><g id="a"/><g id="b"><g id="c"><path class="d" d="M67.73,13.09c-1.9,.24-3.68,.82-5.28,1.66L53.63,.93c-.42-.66-1.18-1.01-1.95-.91l-9.89,1.26c-1.1,.14-1.88,1.15-1.74,2.25,.14,1.1,1.15,1.88,2.25,1.74l8.62-1.1,2.61,4.09-27.21,3.47-2.52-4.1,4.87-.62c1.1-.14,1.88-1.15,1.74-2.25-.14-1.1-1.15-1.88-2.25-1.74l-8.01,1.02h0l-4.14,.53c-1.1,.14-1.88,1.15-1.74,2.25,.14,1.1,1.15,1.88,2.25,1.74l2.9-.37,3.57,5.81-2.85,6.53c-2.04-.62-4.24-.83-6.49-.54C5.11,21.08-.96,28.93,.13,37.48s8.94,14.63,17.49,13.53c8.14-1.04,14.03-8.2,13.64-16.27l6.39-.86c.43-.06,.84-.26,1.15-.56L57.65,14.71l1.51,2.36c-3.62,3.32-5.63,8.28-4.96,13.51,1.09,8.55,8.94,14.63,17.49,13.53s14.63-8.94,13.53-17.49-8.94-14.63-17.49-13.53Zm-42.17,5.09l7.53,12.26-2.54,.34c-1.15-3.65-3.59-6.67-6.73-8.6l1.75-4Zm.91,13.15l-7.06,.95,2.77-6.36c1.91,1.31,3.43,3.18,4.29,5.41Zm-9.37,15.69c-6.35,.81-12.18-3.7-12.99-10.05-.81-6.35,3.7-12.18,10.05-12.99,1.5-.19,2.97-.08,4.36,.27l-4.23,9.69c-.29,.67-.2,1.44,.24,2.02,.43,.58,1.15,.88,1.86,.78h.01l10.84-1.46c.11,5.85-4.21,10.98-10.14,11.74Zm20.01-17.7l-8.49-13.83,25.83-3.3-17.34,17.12Zm34.06,10.8c-6.35,.81-12.18-3.7-12.99-10.05-.46-3.63,.81-7.09,3.17-9.54l6.28,9.84c.43,.68,1.2,1.01,1.95,.91,.29-.04,.57-.13,.83-.3,.94-.6,1.21-1.84,.61-2.78l-6.41-10.05c1.11-.54,2.32-.92,3.62-1.08,6.35-.81,12.18,3.7,12.99,10.05s-3.7,12.18-10.05,12.99Z"/></g></g></svg>