<?xml version="1.0" encoding="utf-8"?>
<!-- Generator: Adobe Illustrator 26.2.1, SVG Export Plug-In . SVG Version: 6.00 Build 0)  -->
<svg version="1.1" id="Ebene_1" xmlns="http://www.w3.org/2000/svg" xmlns:xlink="http://www.w3.org/1999/xlink" x="0px" y="0px"
	 viewBox="0 0 1800 1514.1" style="enable-background:new 0 0 1800 1514.1;" xml:space="preserve">
<style type="text/css">
	.st0{fill:#FCAB10;}
</style>
<g id="a">
</g>
<path class="st0" d="M1657.6,130.4c-3.5-0.6-7.1-0.4-10.5,0.2l-8.6-29.8c-0.4-1.4-1.6-2.4-3.1-2.7l-18.6-3c-2.1-0.4-4,1-4.4,3.1
	s1,4,3.1,4.4l16.2,2.6l2.6,8.8l-51.1-8.2l-2.3-8.8l9.2,1.4c2.1,0.4,4-1,4.4-3.1c0.4-2.1-1-4-3.1-4.4l-15-2.4l0,0l-7.8-1.2
	c-2.1-0.4-4,1-4.4,3.1c-0.4,2.1,1,4,3.1,4.4l5.4,0.9l3.3,12.4l-8.7,10.2c-3.3-2.2-7.2-3.8-11.5-4.4c-16-2.5-31.3,8.4-33.8,24.4
	s8.4,31.3,24.4,33.8c15.3,2.5,29.8-7.3,33.4-22.1l12,1.9c0.8,0.1,1.6,0,2.4-0.4l44.1-23.6l1.5,5.1c-8.3,4.1-14.6,12-16.2,21.8
	c-2.5,16,8.4,31.3,24.4,33.8c16,2.5,31.3-8.4,33.8-24.4S1673.6,132.9,1657.6,130.4L1657.6,130.4z M1578.5,117.1l7.1,26.2l-4.7-0.7
	c-0.2-7.2-3-13.9-7.6-19.1L1578.5,117.1L1578.5,117.1z M1573.1,141.3l-13.3-2l8.4-10.1C1571,132.7,1572.8,136.9,1573.1,141.3z
	 M1547.8,164.8c-11.9-1.9-20-13.1-18.2-25.2c1.9-11.9,13.1-20,25.2-18.2c2.8,0.4,5.5,1.4,7.7,2.8l-12.8,15.3
	c-0.8,1.1-1.1,2.5-0.7,3.8c0.5,1.3,1.6,2.2,2.9,2.4l0,0l20.4,3.1C1569.5,159.6,1559,166.6,1547.8,164.8L1547.8,164.8z M1593.5,143.4
	l-8-29.5l48.6,7.8L1593.5,143.4L1593.5,143.4z M1649.4,181.2c-11.9-1.9-20-13.1-18.2-25.2c1.1-6.9,5.2-12.5,10.8-15.6l6.1,21.1
	c0.4,1.4,1.6,2.4,3.1,2.7c0.5,0.1,1,0.1,1.7-0.1c2-0.6,3.1-2.7,2.6-4.7l-6.3-21.6c2.3-0.4,4.7-0.5,7.2,0c11.9,1.9,20,13.1,18.2,25.2
	C1672.6,174.9,1661.4,183,1649.4,181.2L1649.4,181.2z"/>
<path class="st0" d="M1800,1514.6v-1299c-257.5-56.9-566.2-90-898.3-90s-644.4,33.5-902.8,91v1296.9L1800,1514.6L1800,1514.6z"/>
</svg>
