<?xml version="1.0" encoding="utf-8"?>
<!-- Generator: Adobe Illustrator 26.2.1, SVG Export Plug-In . SVG Version: 6.00 Build 0)  -->
<svg version="1.1" id="Ebene_1" xmlns="http://www.w3.org/2000/svg" xmlns:xlink="http://www.w3.org/1999/xlink" x="0px" y="0px"
	 viewBox="0 0 1026 859.9" style="enable-background:new 0 0 1026 859.9;" xml:space="preserve">
<style type="text/css">
	.st0{fill:#FCAB10;}
</style>
<g id="a">
</g>
<path class="st0" d="M917.6,40.5c-3.6-0.4-7.1-0.2-10.5,0.5l-9.5-29.6c-0.5-1.4-1.6-2.4-3.1-2.6l-18.7-2.4c-2.1-0.3-4,1.2-4.3,3.3
	c-0.3,2.1,1.2,4,3.3,4.3l16.3,2.1l2.8,8.7l-51.3-6.7l-2.6-8.7l9.2,1.2c2.1,0.3,4-1.2,4.3-3.3s-1.2-4-3.3-4.3l-15.1-2l0,0L827.2,0
	c-2.1-0.3-4,1.2-4.3,3.3c-0.3,2.1,1.2,4,3.3,4.3l5.5,0.7l3.7,12.3l-8.4,10.5c-3.5-2.2-7.3-3.5-11.5-4.1c-16.1-2.1-31,9.3-33.1,25.4
	s9.3,31,25.4,33.1c15.4,2.1,29.5-8.2,32.7-23.1l12.1,1.5c0.8,0.1,1.7-0.1,2.4-0.5l43.3-24.9l1.6,5.1c-8.2,4.3-14.3,12.4-15.5,22.2
	c-2.1,16.1,9.3,31,25.4,33.1s31-9.3,33.1-25.4C945.2,57.4,933.6,42.6,917.6,40.5L917.6,40.5z M838.1,29.4l7.8,26l-4.8-0.6
	c-0.3-7.2-3.3-13.9-8.2-19L838.1,29.4L838.1,29.4z M833.4,53.9l-13.3-1.7l8.1-10.2C831.1,45.3,833,49.4,833.4,53.9z M808.8,78
	c-12-1.6-20.4-12.6-18.9-24.6c1.6-12,12.6-20.4,24.6-18.9c2.8,0.3,5.5,1.3,7.8,2.6L810,52.8c-0.8,1.1-1.1,2.5-0.5,3.8
	c0.5,1.3,1.7,2.1,3,2.4l0,0l20.5,2.6C830.4,72.2,820,79.6,808.8,78L808.8,78z M853.8,55.4L845,26.1l48.7,6.4L853.8,55.4L853.8,55.4z
	 M910.8,91.5c-12-1.6-20.4-12.6-18.9-24.6c0.9-6.8,4.9-12.6,10.4-15.9l6.7,20.9c0.4,1.5,1.7,2.4,3.1,2.6c0.5,0,1.1,0,1.7-0.2
	c2-0.6,3.1-2.8,2.4-4.7l-6.9-21.4c2.3-0.4,4.7-0.6,7.1-0.3c12,1.6,20.4,12.6,18.9,24.6C933.8,84.6,922.8,93,910.8,91.5L910.8,91.5z"
	/>
<path class="st0" d="M1026,859.9v-740C879.4,87.5,703.5,68.6,514.3,68.6S147.2,87.7,0,120.5v738.8L1026,859.9L1026,859.9z"/>
</svg>
