<?xml version="1.0" encoding="utf-8"?>
<!-- Generator: Adobe Illustrator 26.2.1, SVG Export Plug-In . SVG Version: 6.00 Build 0)  -->
<svg version="1.1" id="Ebene_1" xmlns="http://www.w3.org/2000/svg" xmlns:xlink="http://www.w3.org/1999/xlink" x="0px" y="0px"
	 viewBox="0 0 1026 874.5" style="enable-background:new 0 0 1026 874.5;" xml:space="preserve">
<style type="text/css">
	.st0{fill:#44AF69;}
</style>
<path class="st0" d="M744.4,37c-3.6-0.3-7.1,0.1-10.4,1.1l-11-29c-0.5-1.3-1.8-2.3-3.3-2.4l-18.8-1.4c-2.1-0.1-3.9,1.4-4.1,3.5
	c-0.1,2.1,1.4,3.9,3.5,4.1l16.4,1.2l3.3,8.6l-51.6-4l-3.1-8.5l9.2,0.7c2.1,0.1,3.9-1.4,4.1-3.5c0.2-2.1-1.4-3.9-3.5-4.1L659.9,2l0,0
	l-7.8-0.6c-2.1-0.1-3.9,1.4-4.1,3.5c-0.1,2.1,1.4,3.9,3.5,4.1l5.5,0.5l4.4,12.1l-7.8,10.9c-3.6-2-7.5-3.1-11.7-3.5
	c-16.2-1.3-30.4,10.9-31.7,27.1c-1.3,16.2,10.9,30.4,27.1,31.7C652.6,89,666.2,78,668.6,63l12.2,0.9c0.8,0.1,1.7-0.2,2.4-0.6
	l42-27.2l1.9,5c-8,4.7-13.6,13.2-14.3,23c-1.3,16.2,10.9,30.4,27.1,31.7c16.2,1.3,30.4-10.9,31.7-27.1
	C772.9,52.5,760.5,38.3,744.4,37L744.4,37z M664.4,30.2l9.2,25.6l-4.8-0.3c-0.7-7.2-4-13.7-9.2-18.5L664.4,30.2L664.4,30.2z
	 M661,54.8l-13.4-1l7.6-10.7C658.2,46.3,660.3,50.4,661,54.8z M637.7,80.2c-12.1-0.9-21.1-11.5-20.1-23.6
	c0.9-12.1,11.5-21.1,23.6-20.1c2.8,0.2,5.5,1,7.9,2.2l-11.5,16.3c-0.8,1.2-1,2.6-0.3,3.8c0.6,1.2,1.8,2,3.1,2.2l0,0l20.6,1.5
	C659,73.3,649,81.2,637.7,80.2L637.7,80.2z M681.5,55.3l-10.3-28.8l49,3.9L681.5,55.3L681.5,55.3z M740.3,88.3
	c-12.1-0.9-21.1-11.5-20.1-23.6c0.5-6.8,4.3-12.8,9.5-16.4l7.8,20.6c0.5,1.4,1.9,2.3,3.3,2.4c0.5,0,1.1-0.1,1.7-0.3
	c2-0.7,3-2.9,2.2-4.9l-8-21c2.3-0.5,4.7-0.8,7.1-0.6c12.1,0.9,21.1,11.5,20.1,23.6C762.9,80.2,752.4,89.2,740.3,88.3L740.3,88.3z"/>
<path class="st0" d="M1026,874.5v-740c-146.6-32.4-322.5-51.3-511.7-51.3S147.2,102.3,0,135.1v738.8L1026,874.5L1026,874.5z"/>
</svg>
