<?xml version="1.0" encoding="utf-8"?>
<!-- Generator: Adobe Illustrator 26.2.1, SVG Export Plug-In . SVG Version: 6.00 Build 0)  -->
<svg version="1.1" id="Ebene_1" xmlns="http://www.w3.org/2000/svg" xmlns:xlink="http://www.w3.org/1999/xlink" x="0px" y="0px"
	 viewBox="0 0 1280 845.6" style="enable-background:new 0 0 1280 845.6;" xml:space="preserve">
<style type="text/css">
	.st0{fill:#F8333C;}
</style>
<g id="a">
</g>
<g id="b">
	<g id="c">
		<path class="st0" d="M1280,845.6V118.2c-183-40.4-402.4-64-638.4-64S183.6,78,0,118.9v726L1280,845.6L1280,845.6z"/>
		<path class="st0" d="M220.8,24.1c-3.6,0.5-6.9,1.7-9.9,3.4L193.7,1.7c-0.8-1.2-2.3-1.9-3.7-1.6l-18.6,2.8
			c-2.1,0.3-3.5,2.2-3.2,4.3c0.3,2.1,2.2,3.5,4.3,3.2l16.2-2.4l5.1,7.6l-51.2,7.7l-4.9-7.6l9.2-1.4c2.1-0.3,3.5-2.2,3.2-4.3
			s-2.2-3.5-4.3-3.2l-15.1,2.2l0,0l-7.8,1.2c-2.1,0.3-3.5,2.2-3.2,4.3c0.3,2.1,2.2,3.5,4.3,3.2l5.5-0.8l7,10.8L131.4,40
			c-3.9-1.1-8-1.4-12.3-0.8C103,41.7,91.8,56.7,94.2,72.8c2.4,16.1,17.5,27.2,33.6,24.8c15.3-2.3,26.1-16,25.1-31.2l12-1.9
			c0.8-0.1,1.6-0.5,2.1-1.1l34.8-35.9l2.9,4.4c-6.7,6.4-10.3,15.9-8.8,25.7c2.4,16.1,17.5,27.2,33.6,24.8s27.2-17.5,24.8-33.6
			C252,32.8,236.9,21.7,220.8,24.1L220.8,24.1z M141.5,35.4l14.7,22.8l-4.8,0.8c-2.3-6.8-7.1-12.4-13.1-16L141.5,35.4L141.5,35.4z
			 M143.7,60.2l-13.3,2.1l5-12.1C139.1,52.5,142,56,143.7,60.2z M126.7,90.2c-12,1.8-23.1-6.5-24.9-18.4s6.5-23.1,18.4-24.9
			c2.8-0.4,5.6-0.3,8.2,0.3l-7.6,18.5c-0.5,1.3-0.3,2.7,0.5,3.8c0.8,1.1,2.2,1.6,3.5,1.4h0l20.4-3.2
			C145.8,78.6,137.8,88.5,126.7,90.2L126.7,90.2z M163.7,55.9l-16.6-25.8l48.6-7.3L163.7,55.9z M228.4,74.9
			c-12,1.8-23.1-6.5-24.9-18.4c-1-6.8,1.2-13.4,5.6-18.1l12.2,18.3c0.8,1.3,2.3,1.9,3.7,1.7c0.5-0.1,1.1-0.3,1.6-0.6
			c1.7-1.2,2.2-3.5,1.1-5.3l-12.5-18.7c2.1-1.1,4.4-1.8,6.8-2.2c12-1.8,23.1,6.5,24.9,18.4C248.7,62,240.4,73.2,228.4,74.9
			L228.4,74.9z"/>
	</g>
</g>
</svg>
