<?xml version="1.0" encoding="utf-8"?>
<!-- Generator: Adobe Illustrator 26.2.1, SVG Export Plug-In . SVG Version: 6.00 Build 0)  -->
<svg version="1.1" id="Ebene_1" xmlns="http://www.w3.org/2000/svg" xmlns:xlink="http://www.w3.org/1999/xlink" x="0px" y="0px"
	 viewBox="0 0 769.9 863.4" style="enable-background:new 0 0 769.9 863.4;" xml:space="preserve">
<style type="text/css">
	.st0{fill:#F8333C;}
</style>
<g id="a">
</g>
<g id="b">
	<g id="c">
		<path class="st0" d="M180.3,24.8c-3.6,0.5-6.9,1.5-10,3.1L153.8,1.8c-0.8-1.2-2.2-1.9-3.7-1.7l-18.7,2.3c-2.1,0.3-3.6,2.2-3.3,4.2
			c0.3,2.1,2.2,3.6,4.2,3.3l16.3-2.1l4.9,7.7L102.2,22l-4.7-7.8l9.2-1.2c2.1-0.3,3.6-2.2,3.3-4.2s-2.2-3.6-4.2-3.3L90.6,7.5l0,0
			l-7.8,1c-2.1,0.3-3.6,2.2-3.3,4.2c0.3,2.1,2.2,3.6,4.2,3.3l5.5-0.7l6.7,11l-5.4,12.3c-3.8-1.2-8-1.6-12.2-1
			c-16.2,2-27.6,16.8-25.6,33c2,16.2,16.8,27.6,33,25.6c15.4-1.9,26.5-15.4,25.8-30.7l12.1-1.6c0.8-0.1,1.6-0.5,2.2-1.1l35.7-35.1
			l2.8,4.5c-6.8,6.2-10.6,15.6-9.4,25.5c2,16.2,16.8,27.6,33,25.6c16.1-2,27.6-16.8,25.6-33C211.3,34.2,196.5,22.7,180.3,24.8
			L180.3,24.8z M100.7,34.2l14.2,23.2l-4.8,0.6c-2.2-6.9-6.8-12.6-12.7-16.3L100.7,34.2z M102.4,59l-13.3,1.8l5.3-12
			C97.9,51.3,100.8,54.8,102.4,59z M84.7,88.6c-12,1.5-23-7-24.5-19s7-23,19-24.5c2.8-0.4,5.6-0.2,8.2,0.5l-8,18.3
			c-0.6,1.3-0.4,2.7,0.4,3.8c0.8,1.1,2.2,1.7,3.5,1.5h0l20.5-2.7C104,77.6,95.9,87.2,84.7,88.6z M122.5,55.3l-16-26.1l48.8-6.1
			L122.5,55.3z M186.8,75.8c-12,1.5-23-7-24.5-19c-0.9-6.8,1.6-13.4,6-18l11.8,18.6c0.8,1.3,2.3,1.9,3.7,1.7
			c0.5-0.1,1.1-0.2,1.6-0.6c1.8-1.1,2.3-3.5,1.2-5.2l-12.1-19c2.1-1,4.4-1.7,6.8-2c12-1.5,23,7,24.5,19
			C207.3,63.3,198.8,74.3,186.8,75.8L186.8,75.8z"/>
		<path class="st0" d="M769.9,863.4V111.2c-110-24.3-242-38.5-384-38.5S110.4,87.1,0,111.7V863L769.9,863.4z"/>
	</g>
</g>
</svg>
