<?xml version="1.0" encoding="utf-8"?>
<!-- Generator: Adobe Illustrator 26.2.1, SVG Export Plug-In . SVG Version: 6.00 Build 0)  -->
<svg version="1.1" id="Ebene_1" xmlns="http://www.w3.org/2000/svg" xmlns:xlink="http://www.w3.org/1999/xlink" x="0px" y="0px"
	 viewBox="0 0 390 570.9" style="enable-background:new 0 0 390 570.9;" xml:space="preserve">
<style type="text/css">
	.st0{fill:#FCAB10;}
</style>
<g id="a">
</g>
<path class="st0" d="M195.5,39.9C123.2,39.9,56,47.2,0,59.6v511.3h390V59.4C334.2,47.1,267.4,39.9,195.5,39.9L195.5,39.9z"/>
<path class="st0" d="M345.4,21.6c-1.9-0.3-3.8-0.2-5.5,0.2L335,6.2c-0.2-0.7-0.9-1.3-1.6-1.4l-9.9-1.3c-1.1-0.1-2.1,0.6-2.3,1.7
	s0.6,2.1,1.7,2.3l8.6,1.2l1.5,4.6l-27.2-3.7L304.4,5l4.9,0.7c1.1,0.1,2.1-0.6,2.3-1.7s-0.6-2.1-1.7-2.3l-8-1.1l0,0L297.7,0
	c-1.1-0.1-2.1,0.6-2.3,1.7s0.6,2.1,1.7,2.3l2.9,0.4l1.9,6.5l-4.4,5.6c-1.8-1.1-3.9-1.9-6.1-2.2c-8.5-1.2-16.4,4.8-17.6,13.4
	c-1.2,8.5,4.8,16.4,13.4,17.6c8.1,1.1,15.7-4.3,17.4-12.2l6.4,0.8c0.4,0.1,0.9,0,1.3-0.2l23-13.1l0.8,2.7c-4.4,2.3-7.6,6.5-8.3,11.8
	c-1.2,8.5,4.8,16.4,13.4,17.6c8.5,1.2,16.4-4.8,17.6-13.4C360,30.7,354,22.8,345.4,21.6L345.4,21.6z M303.4,15.6l4.1,13.8l-2.5-0.3
	c-0.2-3.8-1.7-7.4-4.3-10L303.4,15.6L303.4,15.6z M300.8,28.6l-7.1-0.9l4.3-5.4C299.6,24,300.6,26.2,300.8,28.6z M287.7,41.3
	c-6.3-0.9-10.8-6.7-9.9-13.1s6.7-10.8,13.1-9.9c1.5,0.2,2.9,0.7,4.1,1.4l-6.6,8.3c-0.5,0.6-0.6,1.3-0.3,2c0.3,0.7,0.9,1.1,1.6,1.2
	l0,0l10.8,1.4C299.2,38.3,293.7,42.1,287.7,41.3z M311.6,29.4L307,13.8l25.8,3.5L311.6,29.4L311.6,29.4z M341.7,48.6
	c-6.3-0.9-10.8-6.7-9.9-13.1c0.5-3.6,2.6-6.6,5.5-8.4l3.5,11.1c0.2,0.8,0.9,1.3,1.6,1.4c0.3,0,0.6,0,0.9-0.1
	c1.1-0.3,1.6-1.5,1.3-2.5l-3.6-11.4c1.2-0.2,2.5-0.3,3.8-0.1c6.3,0.9,10.8,6.7,9.9,13.1C354,45,348.1,49.5,341.7,48.6L341.7,48.6z"
	/>
</svg>
