<?xml version="1.0" encoding="utf-8"?>
<!-- Generator: Adobe Illustrator 26.2.1, SVG Export Plug-In . SVG Version: 6.00 Build 0)  -->
<svg version="1.1" id="Ebene_1" xmlns="http://www.w3.org/2000/svg" xmlns:xlink="http://www.w3.org/1999/xlink" x="0px" y="0px"
	 viewBox="0 0 769.9 874" style="enable-background:new 0 0 769.9 874;" xml:space="preserve">
<style type="text/css">
	.st0{fill:#44AF69;}
</style>
<g id="a">
</g>
<path class="st0" d="M586.1,36.8c-3.6-0.3-7.1,0-10.4,1L565,8.8c-0.5-1.3-1.8-2.3-3.3-2.4l-18.8-1.6c-2.1-0.1-4,1.4-4.1,3.4
	c-0.1,2.1,1.4,4,3.4,4.1l16.4,1.3l3.2,8.6l-51.5-4.3l-3-8.6l9.2,0.7c2.1,0.1,4-1.4,4.1-3.4s-1.4-4-3.4-4.1L502,1.2l0,0l-7.8-0.6
	C492,0.4,490.1,2,490,4c-0.1,2.1,1.4,4,3.4,4.1l5.5,0.5l4.3,12.2l-7.8,10.9c-3.5-2-7.5-3.2-11.7-3.5c-16.3-1.4-30.5,10.7-31.9,27
	c-1.4,16.3,10.7,30.5,27,31.9c15.5,1.3,29.1-9.6,31.6-24.7l12.2,1c0.8,0.1,1.7-0.2,2.4-0.6l42.2-26.9l1.8,5
	c-7.9,4.7-13.6,13.1-14.5,23c-1.4,16.3,10.7,30.5,27,31.9c16.2,1.4,30.5-10.7,31.9-27C614.5,52.4,602.4,38.1,586.1,36.8L586.1,36.8z
	 M506.3,29.4l9.1,25.6l-4.8-0.4c-0.7-7.2-4-13.7-9-18.6L506.3,29.4z M502.8,54l-13.4-1l7.7-10.6C500,45.6,502.1,49.6,502.8,54z
	 M479.3,79.3c-12-1-21-11.6-20-23.7c1-12,11.6-21,23.7-20c2.8,0.2,5.5,1,7.9,2.2L479.3,54c-0.9,1.1-1,2.6-0.4,3.8
	c0.6,1.2,1.8,2.1,3.1,2.2l0,0l20.6,1.6C500.5,72.6,490.6,80.3,479.3,79.3z M523.2,54.6L513,25.7l49,4.2L523.2,54.6z M581.9,88
	c-12-1-21-11.6-20-23.7c0.5-6.8,4.4-12.8,9.6-16.4l7.7,20.6c0.5,1.4,1.9,2.3,3.3,2.4c0.5,0,1.1,0,1.7-0.3c2-0.7,3-2.9,2.3-4.8
	l-7.9-21.1c2.3-0.5,4.7-0.7,7.1-0.5c12,1,21,11.6,20,23.7S593.9,89,581.9,88L581.9,88z"/>
<path class="st0" d="M769.9,874V121.8c-110-24.3-242-38.5-384-38.5S110.4,97.7,0,122.3v751.3L769.9,874z"/>
</svg>
