<?xml version="1.0" encoding="utf-8"?>
<!-- Generator: Adobe Illustrator 26.2.1, SVG Export Plug-In . SVG Version: 6.00 Build 0)  -->
<svg version="1.1" id="Ebene_1" xmlns="http://www.w3.org/2000/svg" xmlns:xlink="http://www.w3.org/1999/xlink" x="0px" y="0px"
	 viewBox="0 0 1280 849.3" style="enable-background:new 0 0 1280 849.3;" xml:space="preserve">
<style type="text/css">
	.st0{fill:#FCAB10;}
</style>
<g id="a">
</g>
<path class="st0" d="M1280,849.3V121.8c-183-40.4-402.4-64-638.4-64S183.6,81.7,0,122.6v726L1280,849.3L1280,849.3z"/>
<path class="st0" d="M1171.4,42.9c-3.6-0.6-7.1-0.5-10.4,0.2l-8.6-29.7c-0.4-1.4-1.6-2.5-3-2.7l-18.6-3c-2.1-0.3-4,1.1-4.3,3.2
	c-0.3,2.1,1.1,4,3.2,4.3l16.2,2.6l2.6,8.8l-51.1-8.2l-2.4-8.8l9.2,1.5c2.1,0.3,4-1.1,4.3-3.2s-1.1-4-3.2-4.3l-15-2.4l0,0l-7.8-1.2
	c-2.1-0.3-4,1.1-4.3,3.2c-0.3,2.1,1.1,4,3.2,4.3l5.4,0.9l3.4,12.4l-8.6,10.3c-3.4-2.2-7.2-3.8-11.5-4.4
	c-16.1-2.6-31.2,8.4-33.8,24.5s8.4,31.2,24.5,33.8c15.3,2.4,29.8-7.4,33.3-22.2l12,1.8c0.8,0.1,1.7,0,2.4-0.4l44-23.7l1.5,5.1
	c-8.3,4.1-14.6,12-16.2,21.8c-2.6,16.1,8.4,31.2,24.5,33.8c16.1,2.6,31.2-8.4,33.8-24.5S1187.5,45.5,1171.4,42.9L1171.4,42.9z
	 M1092.3,29.8l7.1,26.2l-4.8-0.7c-0.2-7.2-3-14-7.6-19.2L1092.3,29.8L1092.3,29.8z M1087,54.1l-13.3-2l8.4-10
	C1084.9,45.4,1086.6,49.6,1087,54.1z M1061.7,77.5c-11.9-1.9-20.1-13.2-18.2-25.1s13.2-20.1,25.1-18.2c2.8,0.5,5.4,1.4,7.7,2.8
	l-12.8,15.3c-0.9,1.1-1.1,2.5-0.6,3.8c0.5,1.3,1.6,2.2,3,2.4l0,0l20.4,3.1C1083.4,72.3,1072.8,79.3,1061.7,77.5L1061.7,77.5z
	 M1107.3,56.1l-8-29.6l48.5,7.7L1107.3,56.1z M1163.3,93.7c-11.9-1.9-20.1-13.2-18.2-25.1c1.1-6.8,5.2-12.4,10.8-15.6l6.1,21.2
	c0.4,1.5,1.6,2.5,3,2.7c0.5,0.1,1.1,0.1,1.7-0.1c2-0.6,3.2-2.7,2.6-4.7l-6.3-21.6c2.3-0.4,4.7-0.4,7.1,0
	c11.9,1.9,20.1,13.2,18.2,25.1C1186.5,87.5,1175.2,95.7,1163.3,93.7L1163.3,93.7z"/>
</svg>
