<?xml version="1.0" encoding="UTF-8"?><svg xmlns="http://www.w3.org/2000/svg" viewBox="0 0 769.93 863.43"><defs><style>.d{fill:#f47a45;}</style></defs><g id="a"/><g id="b"><g id="c"><path class="d" d="M180.34,24.76c-3.59,.45-6.95,1.54-9.98,3.12L153.77,1.76c-.79-1.24-2.22-1.91-3.68-1.73l-18.67,2.35c-2.08,.26-3.56,2.16-3.29,4.24,.26,2.08,2.16,3.56,4.24,3.29l16.28-2.05,4.91,7.73-51.37,6.46-4.74-7.76,9.2-1.16c2.08-.26,3.56-2.16,3.29-4.24s-2.16-3.56-4.24-3.29l-15.12,1.9h0l-7.81,.98c-2.08,.26-3.56,2.16-3.29,4.24,.26,2.08,2.16,3.56,4.24,3.29l5.47-.69,6.72,10.99-5.4,12.32c-3.85-1.17-8-1.58-12.25-1.05-16.15,2.03-27.64,16.82-25.61,32.98,2.03,16.15,16.82,27.64,32.98,25.61,15.37-1.93,26.51-15.43,25.8-30.66l12.06-1.6c.82-.11,1.58-.48,2.17-1.06l35.66-35.08,2.84,4.46c-6.84,6.25-10.65,15.61-9.41,25.48,2.03,16.15,16.82,27.64,32.98,25.61,16.15-2.03,27.64-16.82,25.61-32.98-2.03-16.15-16.82-27.64-32.98-25.61Zm-79.61,9.47l14.16,23.17-4.8,.64c-2.17-6.9-6.75-12.6-12.67-16.26l3.31-7.55Zm1.68,24.82l-13.34,1.76,5.26-11.99c3.61,2.48,6.46,6.02,8.08,10.23Zm-17.74,29.59c-12,1.51-22.98-7.02-24.49-19.02-1.51-12,7.02-22.98,19.02-24.49,2.83-.36,5.61-.15,8.22,.53l-8.01,18.27c-.55,1.26-.38,2.71,.44,3.81,.82,1.09,2.16,1.66,3.51,1.49h.02l20.47-2.71c.19,11.04-7.98,20.71-19.18,22.12Zm37.84-33.35l-15.97-26.13,48.77-6.13-32.8,32.26Zm64.25,20.51c-12,1.51-22.98-7.02-24.49-19.02-.86-6.85,1.56-13.38,6.03-17.99l11.82,18.6c.81,1.28,2.27,1.91,3.68,1.73,.54-.07,1.07-.25,1.56-.56,1.77-1.13,2.29-3.47,1.17-5.24l-12.07-18.99c2.1-1.02,4.39-1.72,6.83-2.03,12-1.51,22.98,7.02,24.49,19.02,1.51,12-7.02,22.98-19.02,24.49Z"/><path class="d" d="M769.93,863.43V111.22c-110.05-24.32-242.05-38.48-383.98-38.48S110.45,87.07,0,111.65V862.99l769.93,.44Z"/></g></g></svg>