<?xml version="1.0" encoding="utf-8"?>
<!-- Generator: Adobe Illustrator 26.2.1, SVG Export Plug-In . SVG Version: 6.00 Build 0)  -->
<svg version="1.1" id="Ebene_1" xmlns="http://www.w3.org/2000/svg" xmlns:xlink="http://www.w3.org/1999/xlink" x="0px" y="0px"
	 viewBox="0 0 769.9 874" style="enable-background:new 0 0 769.9 874;" xml:space="preserve">
<style type="text/css">
	.st0{fill:#2B9EB3;}
</style>
<g id="a">
</g>
<path class="st0" d="M319.3,26.8c-3.6,0.2-7,1-10.2,2.4L294.5,2c-0.7-1.3-2.1-2-3.6-2l-18.8,1c-2.1,0.2-3.7,1.9-3.6,4
	c0.2,2.1,1.9,3.7,4,3.6l16.4-1l4.4,8l-51.6,2.9l-4.1-8.1l9.3-0.6c2.1-0.2,3.7-1.9,3.6-4c-0.2-2-1.9-3.7-4-3.6l-15.3,0.9l0,0
	l-7.9,0.5c-2.1,0.2-3.7,1.9-3.6,4c0.2,2.1,1.9,3.7,4,3.6l5.5-0.3l5.9,11.4l-6.2,11.9c-3.7-1.5-7.9-2.2-12.1-1.8
	c-16.3,0.9-28.7,14.8-27.8,31.1c0.9,16.3,14.8,28.7,31.1,27.8c15.5-0.8,27.5-13.5,27.9-28.8l12.2-0.8c0.8,0,1.6-0.4,2.3-0.9
	l38.1-32.5l2.5,4.7c-7.2,5.7-11.7,14.8-11.2,24.8c0.9,16.3,14.8,28.7,31.1,27.8c16.2-0.9,28.7-14.8,27.8-31.1
	C349.6,38.4,335.6,25.8,319.3,26.8L319.3,26.8z M239.3,30.6l12.5,24.1L247,55c-1.7-7-5.9-13-11.5-17.1L239.3,30.6z M239.2,55.5
	l-13.4,0.9l6.1-11.6C235.3,47.5,237.9,51.2,239.2,55.5z M219.5,83.8c-12.1,0.7-22.5-8.6-23.1-20.7c-0.7-12.1,8.6-22.5,20.7-23.1
	c2.8-0.2,5.6,0.2,8.1,1.1L216,58.8c-0.7,1.3-0.6,2.7,0.1,3.8c0.7,1.2,2.1,1.8,3.4,1.7l0,0l20.6-1.3
	C239.5,74.2,230.8,83.2,219.5,83.8z M259.6,53.2l-14.1-27.2l49.1-2.7L259.6,53.2z M322.3,78.1c-12.1,0.7-22.5-8.6-23.1-20.7
	c-0.4-6.8,2.5-13.3,7.2-17.5l10.5,19.4c0.7,1.4,2.2,2.1,3.6,2c0.5-0.1,1.1-0.1,1.6-0.5c1.9-1,2.5-3.3,1.6-5.1l-10.7-19.8
	c2.2-0.9,4.5-1.4,6.9-1.5c12.1-0.7,22.5,8.6,23.1,20.7S334.3,77.5,322.3,78.1L322.3,78.1z"/>
<path class="st0" d="M769.9,874V121.8c-110-24.3-242-38.5-384-38.5S110.4,97.7,0,122.3v751.3L769.9,874z"/>
</svg>
