<?xml version="1.0" encoding="utf-8"?>
<!-- Generator: Adobe Illustrator 26.2.1, SVG Export Plug-In . SVG Version: 6.00 Build 0)  -->
<svg version="1.1" id="Ebene_1" xmlns="http://www.w3.org/2000/svg" xmlns:xlink="http://www.w3.org/1999/xlink" x="0px" y="0px"
	 viewBox="0 0 390 569.3" style="enable-background:new 0 0 390 569.3;" xml:space="preserve">
<style type="text/css">
	.st0{fill:#F8333C;}
</style>
<g id="a">
</g>
<path class="st0" d="M195,38.7C122.7,38.7,55.4,46-0.5,58.4v12.8v168.1V254v43.6v272.1h390V297.6v-43.4v-14.9V71.2v-13
	C333.8,45.9,266.9,38.7,195,38.7z"/>
<path class="st0" d="M94.3,13.5c-1.9,0.2-3.7,0.8-5.3,1.7L80.2,1.3c-0.4-0.7-1.2-1-2-0.9l-9.9,1.3c-1.1,0.1-1.9,1.1-1.7,2.3
	c0.1,1.1,1.1,1.9,2.3,1.7l8.6-1.1l2.6,4.1l-27.2,3.5L50.4,8l4.9-0.6c1.1-0.1,1.9-1.1,1.7-2.3c-0.1-1.1-1.1-1.9-2.3-1.7l-8,1
	c0,0,0,0,0,0L42.6,5c-1.1,0.1-1.9,1.1-1.7,2.3C41,8.3,42,9.1,43.1,8.9L46,8.6l3.6,5.8l-2.8,6.5c-2-0.6-4.2-0.8-6.5-0.5
	c-8.6,1.1-14.6,8.9-13.5,17.5c1.1,8.6,8.9,14.6,17.5,13.5c8.1-1,14-8.2,13.6-16.3l6.4-0.9c0.4-0.1,0.8-0.3,1.1-0.6l18.9-18.6
	l1.5,2.4c-3.6,3.3-5.6,8.3-5,13.5c1.1,8.6,8.9,14.6,17.5,13.5c8.6-1.1,14.6-8.9,13.5-17.5C110.7,18.5,102.8,12.4,94.3,13.5z
	 M52.1,18.6l7.5,12.3l-2.5,0.3c-1.2-3.7-3.6-6.7-6.7-8.6L52.1,18.6z M53,31.7L46,32.7l2.8-6.4C50.7,27.6,52.2,29.5,53,31.7z
	 M43.7,47.4c-6.4,0.8-12.2-3.7-13-10.1c-0.8-6.4,3.7-12.2,10.1-13c1.5-0.2,3-0.1,4.4,0.3l-4.2,9.7c-0.3,0.7-0.2,1.4,0.2,2
	c0.4,0.6,1.1,0.9,1.9,0.8c0,0,0,0,0,0l10.8-1.5C53.9,41.5,49.6,46.7,43.7,47.4z M63.7,29.7l-8.5-13.8L81,12.6L63.7,29.7z M97.7,40.5
	c-6.4,0.8-12.2-3.7-13-10.1c-0.5-3.6,0.8-7.1,3.2-9.5l6.3,9.8c0.4,0.7,1.2,1,2,0.9c0.3,0,0.6-0.1,0.8-0.3c0.9-0.6,1.2-1.8,0.6-2.8
	l-6.4-10c1.1-0.5,2.3-0.9,3.6-1.1c6.4-0.8,12.2,3.7,13,10.1S104.1,39.7,97.7,40.5z"/>
</svg>
