<?xml version="1.0" encoding="utf-8"?>
<!-- Generator: Adobe Illustrator 26.2.1, SVG Export Plug-In . SVG Version: 6.00 Build 0)  -->
<svg version="1.1" id="Ebene_1" xmlns="http://www.w3.org/2000/svg" xmlns:xlink="http://www.w3.org/1999/xlink" x="0px" y="0px"
	 viewBox="0 0 1026 857.1" style="enable-background:new 0 0 1026 857.1;" xml:space="preserve">
<style type="text/css">
	.st0{fill:#F8333C;}
</style>
<g id="a">
</g>
<g id="b">
	<g id="c">
		<path class="st0" d="M209.8,24.6c-3.6,0.5-6.9,1.6-10,3.2L183,1.7c-0.8-1.2-2.2-1.9-3.7-1.7l-18.7,2.5c-2.1,0.3-3.5,2.2-3.3,4.3
			c0.3,2.1,2.2,3.5,4.3,3.3l16.3-2.2l5,7.7l-51.3,6.8l-4.8-7.7l9.2-1.2c2.1-0.3,3.5-2.2,3.3-4.3s-2.2-3.5-4.3-3.3l-15.1,2l0,0
			l-7.8,1c-2.1,0.3-3.5,2.2-3.3,4.3c0.3,2.1,2.2,3.5,4.3,3.3l5.5-0.7l6.8,10.9L120,39c-3.9-1.2-8-1.5-12.2-1
			c-16.1,2.1-27.5,17-25.4,33.1s17,27.5,33.1,25.4c15.4-2,26.4-15.6,25.6-30.8l12.1-1.7c0.8-0.1,1.6-0.5,2.2-1.1l35.4-35.3l2.9,4.5
			c-6.8,6.3-10.6,15.7-9.2,25.5c2.1,16.1,17,27.5,33.1,25.4s27.5-17,25.4-33.1S225.9,22.5,209.8,24.6L209.8,24.6z M130.2,34.5
			l14.3,23.1l-4.8,0.7c-2.2-6.9-6.8-12.6-12.8-16.2L130.2,34.5L130.2,34.5z M132,59.3l-13.3,1.8l5.2-12
			C127.5,51.6,130.4,55.1,132,59.3z M114.5,89c-12,1.6-23-6.9-24.6-18.9s6.9-23,18.9-24.6c2.8-0.4,5.6-0.2,8.2,0.5l-7.9,18.3
			c-0.5,1.3-0.4,2.7,0.5,3.8c0.8,1.1,2.2,1.6,3.5,1.5l0,0l20.5-2.8C133.8,77.8,125.7,87.6,114.5,89L114.5,89z M152.1,55.5l-16.1-26
			l48.7-6.4L152.1,55.5L152.1,55.5z M216.5,75.6c-12,1.6-23-6.9-24.6-18.9c-0.9-6.8,1.5-13.4,5.9-18l11.9,18.5
			c0.8,1.3,2.3,1.9,3.7,1.7c0.5-0.1,1.1-0.3,1.6-0.6c1.8-1.1,2.3-3.5,1.1-5.2l-12.2-18.9c2.1-1,4.4-1.8,6.8-2.1
			c12-1.6,23,6.9,24.6,18.9S228.5,74,216.5,75.6L216.5,75.6z"/>
		<path class="st0" d="M1026,857.1v-740C879.4,84.7,703.5,65.8,514.3,65.8S147.2,84.9,0,117.7v738.8L1026,857.1L1026,857.1z"/>
	</g>
</g>
</svg>
