<?xml version="1.0" encoding="utf-8"?>
<!-- Generator: Adobe Illustrator 26.2.1, SVG Export Plug-In . SVG Version: 6.00 Build 0)  -->
<svg version="1.1" id="Ebene_1" xmlns="http://www.w3.org/2000/svg" xmlns:xlink="http://www.w3.org/1999/xlink" x="0px" y="0px"
	 viewBox="0 0 1026 874.5" style="enable-background:new 0 0 1026 874.5;" xml:space="preserve">
<style type="text/css">
	.st0{fill:#2B9EB3;}
</style>
<path class="st0" d="M435.7,26.7c-3.6,0.2-7,1.1-10.2,2.5L410.6,2c-0.7-1.3-2.1-2-3.6-2l-18.8,1.2c-2.1,0.2-3.6,2-3.6,4.1
	c0.2,2.1,2,3.6,4.1,3.6l16.4-1.1l4.5,8L357.9,19l-4.3-8l9.3-0.6c2.1-0.2,3.6-2,3.6-4.1s-2-3.6-4.1-3.6l-15.2,0.9l0,0l-7.9,0.5
	c-2.1,0.2-3.6,2-3.6,4.1c0.2,2.1,2,3.6,4.1,3.6l5.5-0.3l6,11.3l-6.2,11.9c-3.8-1.5-7.9-2.1-12.1-1.8c-16.2,1-28.6,15-27.6,31.2
	s15,28.6,31.2,27.6c15.5-0.9,27.4-13.7,27.7-28.9l12.2-0.9c0.8,0,1.6-0.4,2.3-0.9l37.8-32.7l2.6,4.7c-7.2,5.8-11.7,14.9-11,24.8
	c1,16.2,15,28.6,31.2,27.6c16.2-1,28.6-15,27.6-31.2C466.1,38,451.9,25.7,435.7,26.7L435.7,26.7z M355.6,31l12.7,24l-4.8,0.4
	c-1.7-7-5.9-13-11.6-17.1L355.6,31L355.6,31z M355.7,55.9l-13.4,0.9l6-11.6C351.8,47.9,354.4,51.6,355.7,55.9z M336.2,84.3
	c-12.1,0.8-22.5-8.5-23.2-20.6c-0.8-12.1,8.5-22.5,20.6-23.2c2.8-0.2,5.6,0.2,8.1,1.1l-9.2,17.7c-0.6,1.3-0.6,2.7,0.2,3.8
	c0.7,1.2,2.1,1.7,3.4,1.7l0,0l20.6-1.4C356.2,74.4,347.4,83.7,336.2,84.3L336.2,84.3z M376,53.5l-14.2-27.1l49-3L376,53.5L376,53.5z
	 M438.9,78c-12.1,0.8-22.5-8.5-23.2-20.6c-0.4-6.8,2.4-13.3,7.1-17.5l10.6,19.3c0.7,1.4,2.2,2.1,3.6,2c0.5-0.1,1.1-0.2,1.6-0.5
	c1.9-1,2.5-3.3,1.5-5.1l-10.9-19.7c2.2-0.9,4.5-1.5,6.9-1.6c12.1-0.8,22.5,8.5,23.2,20.6S450.9,77.3,438.9,78L438.9,78z"/>
<path class="st0" d="M1026,874.5v-740c-146.6-32.4-322.5-51.3-511.7-51.3S147.2,102.3,0,135.1v738.8L1026,874.5L1026,874.5z"/>
</svg>
