<?xml version="1.0" encoding="utf-8"?>
<!-- Generator: Adobe Illustrator 26.2.1, SVG Export Plug-In . SVG Version: 6.00 Build 0)  -->
<svg version="1.1" id="Ebene_1" xmlns="http://www.w3.org/2000/svg" xmlns:xlink="http://www.w3.org/1999/xlink" x="0px" y="0px"
	 viewBox="0 0 390 574.3" style="enable-background:new 0 0 390 574.3;" xml:space="preserve">
<style type="text/css">
	.st0{fill:#2B9EB3;}
</style>
<g id="a">
</g>
<path class="st0" d="M195.5,43.3C123.2,43.3,55.9,50.6,0,63v12.8v168.1v14.7v43.6v272.1h390V302.2v-43.4v-14.9V75.8v-13
	C334.3,50.5,267.4,43.3,195.5,43.3z"/>
<path class="st0" d="M159.4,14.2c-1.9,0.1-3.7,0.5-5.4,1.3l-7.8-14.5c-0.4-0.7-1.1-1.1-1.9-1l-10,0.6c-1.1,0-2,1-1.9,2.2
	c0,1.1,1,2,2.2,1.9l8.7-0.5l2.3,4.3L118.2,10L116,5.7l4.9-0.3c1.1,0,2-1,1.9-2.2c0-1.1-1-2-2.2-1.9l-8.1,0.4l0,0l-4.1,0.3
	c-1.1,0-2,1-1.9,2.2c0,1,1,1.9,2.1,1.7l2.9-0.1l3.2,6l-3.2,6.3c-2-0.7-4.1-1.1-6.4-1c-8.7,0.5-15.2,7.9-14.7,16.5
	s7.9,15.2,16.5,14.7c8.2-0.4,14.5-7.2,14.7-15.3l6.4-0.5c0.4-0.1,0.8-0.2,1.1-0.5L149.3,15l1.3,2.5c-3.8,3-6.2,7.9-5.9,13.1
	c0.5,8.7,7.9,15.2,16.5,14.7c8.7-0.5,15.2-7.9,14.7-16.5C175.4,20.3,167.9,13.7,159.4,14.2z M116.9,16.4l6.6,12.8l-2.5,0.1
	c-0.9-3.8-3.1-6.9-6.1-9L116.9,16.4z M116.9,29.5l-7.1,0.5l3.2-6.2C114.9,25.2,116.3,27.2,116.9,29.5z M106.5,44.5
	c-6.4,0.4-11.9-4.5-12.3-11s4.5-11.9,11-12.3c1.5-0.1,3,0.1,4.4,0.6l-4.9,9.4c-0.3,0.7-0.3,1.4,0.1,2c0.4,0.6,1,1,1.8,0.9l0,0
	l10.9-0.7C117.1,39.3,112.5,44.2,106.5,44.5z M127.7,28.2l-7.5-14.4l26-1.5L127.7,28.2z M160.9,41.4c-6.4,0.4-11.9-4.5-12.3-11
	c-0.2-3.6,1.3-7,3.9-9.3l5.6,10.2c0.4,0.7,1.1,1.1,1.9,1c0.3,0,0.6-0.1,0.8-0.2c0.9-0.5,1.3-1.7,0.8-2.8L155.9,19
	c1.1-0.4,2.4-0.7,3.7-0.8c6.4-0.4,11.9,4.5,12.3,11C172.2,35.6,167.3,41,160.9,41.4z"/>
</svg>
