<?xml version="1.0" encoding="utf-8"?>
<!-- Generator: Adobe Illustrator 26.2.1, SVG Export Plug-In . SVG Version: 6.00 Build 0)  -->
<svg version="1.1" id="Ebene_1" xmlns="http://www.w3.org/2000/svg" xmlns:xlink="http://www.w3.org/1999/xlink" x="0px" y="0px"
	 viewBox="0 0 1800 1418.8" style="enable-background:new 0 0 1800 1418.8;" xml:space="preserve">
<style type="text/css">
	.st0{fill:#F47A45;}
</style>
<g id="a">
</g>
<path class="st0" d="M207.3,25.3c-3.5,0.7-6.8,2.1-9.7,3.9L179,4.4c-0.9-1.2-2.4-1.7-3.8-1.4l-18.4,3.8c-2.1,0.4-3.4,2.4-3,4.5
	c0.4,2.1,2.4,3.4,4.5,3l16.1-3.3l5.5,7.3l-50.7,10.4l-5.3-7.4l9.1-1.9c2.1-0.4,3.4-2.4,3-4.5s-2.4-3.4-4.5-3l-14.9,3.1l0,0l-7.7,1.6
	c-2.1,0.4-3.4,2.4-3,4.5c0.4,2.1,2.4,3.4,4.5,3l5.4-1.1l7.5,10.4L118.8,46c-3.9-0.9-8.1-1-12.3-0.1c-15.9,3.3-26.3,18.9-23,34.8
	c3.3,15.9,18.9,26.3,34.8,23c15.2-3.1,25.3-17.4,23.4-32.5l11.9-2.5c0.8-0.2,1.5-0.6,2.1-1.2l32.9-37.7l3.2,4.2
	c-6.3,6.8-9.4,16.4-7.4,26.1c3.3,15.9,18.9,26.3,34.8,23c15.9-3.3,26.3-18.9,23-34.8S223.2,22,207.3,25.3L207.3,25.3z M128.6,40.8
	l15.9,22l-4.7,1c-2.7-6.7-7.7-12-13.9-15.2L128.6,40.8L128.6,40.8z M132.2,65.4l-13.2,2.8l4.3-12.4
	C127.2,58.1,130.3,61.4,132.2,65.4z M116.8,96.3c-11.8,2.4-23.4-5.2-25.9-17.1c-2.4-11.8,5.2-23.4,17.1-25.9
	c2.8-0.6,5.6-0.6,8.2-0.1l-6.6,18.8c-0.4,1.3-0.2,2.7,0.7,3.8c0.9,1,2.3,1.5,3.6,1.2l0,0l20.2-4.3C135.3,83.8,127.9,94,116.8,96.3
	L116.8,96.3z M152,60.1l-17.9-24.8l48.2-9.9L152,60.1L152,60.1z M217.6,75.7c-11.8,2.4-23.4-5.2-25.9-17.1
	c-1.4-6.8,0.5-13.5,4.6-18.4l13.2,17.6c0.9,1.2,2.4,1.7,3.8,1.4c0.5-0.1,1-0.3,1.5-0.7c1.7-1.3,2-3.6,0.8-5.3l-13.5-18
	c2-1.2,4.2-2.1,6.7-2.5c11.8-2.4,23.4,5.2,25.9,17.1C237.1,61.6,229.5,73.2,217.6,75.7L217.6,75.7z"/>
<path class="st0" d="M1800,1419.3v-1299c-257.5-56.9-566.2-90-898.3-90S257.3,63.8-1.1,121.3v1296.9L1800,1419.3L1800,1419.3z"/>
</svg>
