<?xml version="1.0" encoding="utf-8"?>
<!-- Generator: Adobe Illustrator 26.2.1, SVG Export Plug-In . SVG Version: 6.00 Build 0)  -->
<svg version="1.1" id="Ebene_1" xmlns="http://www.w3.org/2000/svg" xmlns:xlink="http://www.w3.org/1999/xlink" x="0px" y="0px"
	 viewBox="0 0 1280 867.7" style="enable-background:new 0 0 1280 867.7;" xml:space="preserve">
<style type="text/css">
	.st0{fill:#2B9EB3;}
</style>
<g id="a">
</g>
<path class="st0" d="M1280,867.7V140.3c-183-40.4-402.4-64-638.4-64S183.6,100.1,0,141v726L1280,867.7L1280,867.7z"/>
<path class="st0" d="M430.1,26.1c-3.6,0.2-7,1.2-10.1,2.7L404.7,1.9c-0.7-1.3-2.2-2.1-3.6-1.9l-18.8,1.5c-2.1,0.2-3.6,2-3.5,4.1
	c0.2,2.1,2,3.6,4.1,3.5l16.3-1.3l4.6,7.9l-51.6,4.1l-4.4-7.9l9.3-0.8c2.1-0.2,3.6-2,3.5-4.1c-0.2-2.1-2-3.6-4.1-3.5l-15.2,1.1l0,0
	l-7.9,0.7c-2.1,0.2-3.6,2-3.5,4.1c0.2,2.1,2,3.6,4.1,3.5l5.5-0.4l6.2,11.3l-5.9,11.9c-3.8-1.4-7.9-2-12.2-1.7
	c-16.2,1.4-28.5,15.6-27.2,31.8S316,94.2,332.2,93c15.4-1.2,27.2-14.1,27.2-29.4l12.1-1.1c0.8,0,1.6-0.4,2.2-1l37.2-33.4l2.6,4.6
	c-7.1,5.9-11.4,15.1-10.6,25c1.3,16.2,15.6,28.4,31.8,27.1c16.2-1.3,28.4-15.6,27.1-31.8C460.7,37,446.4,24.8,430.1,26.1L430.1,26.1
	z M350.2,31.9l13.1,23.8l-4.8,0.5c-1.8-6.9-6.2-12.9-12-16.9L350.2,31.9L350.2,31.9z M350.7,56.8l-13.4,1.2l5.8-11.7
	C346.7,48.8,349.3,52.4,350.7,56.8z M331.7,85.5c-12.1,1-22.6-8.1-23.6-20.1s8.1-22.6,20.1-23.6c2.8-0.2,5.6,0.1,8.2,0.9l-8.9,17.9
	c-0.6,1.3-0.5,2.7,0.2,3.8c0.7,1.2,2.1,1.7,3.4,1.6l0,0l20.6-1.8C351.5,75.3,342.8,84.6,331.7,85.5L331.7,85.5z M371,53.9L356.2,27
	l49-3.9L371,53.9z M434.2,77.3c-12.1,1-22.6-8.1-23.6-20.1c-0.5-6.9,2.1-13.3,6.8-17.7l10.9,19.1c0.7,1.4,2.2,2.1,3.6,2
	c0.5-0.1,1.1-0.2,1.6-0.5c1.8-1.1,2.4-3.3,1.5-5.2l-11.2-19.5c2.2-1,4.5-1.5,6.9-1.7c12.1-1,22.6,8.1,23.6,20.1
	C455.3,65.9,446.3,76.5,434.2,77.3L434.2,77.3z"/>
</svg>
