<?xml version="1.0" encoding="UTF-8"?><svg xmlns="http://www.w3.org/2000/svg" viewBox="0 0 1280 845.59"><defs><style>.d{fill:#f47a45;}</style></defs><g id="a"/><g id="b"><g id="c"><path class="d" d="M1280,845.59V118.15c-182.96-40.43-402.41-63.98-638.36-63.98S183.62,78.01,0,118.88V844.87l1280,.73Z"/><path class="d" d="M220.83,24.06c-3.58,.54-6.91,1.7-9.9,3.35L193.72,1.69c-.82-1.22-2.27-1.86-3.72-1.65l-18.61,2.78c-2.07,.31-3.5,2.24-3.19,4.32,.31,2.07,2.24,3.5,4.32,3.19l16.23-2.43,5.09,7.62-51.2,7.66-4.92-7.64,9.17-1.37c2.07-.31,3.5-2.24,3.19-4.32s-2.24-3.5-4.32-3.19l-15.07,2.25h0l-7.78,1.16c-2.07,.31-3.5,2.24-3.19,4.32,.31,2.07,2.24,3.5,4.32,3.19l5.45-.81,6.97,10.83-5.11,12.44c-3.88-1.08-8.04-1.4-12.27-.76-16.1,2.41-27.24,17.46-24.83,33.56,2.41,16.1,17.46,27.24,33.56,24.83,15.33-2.29,26.15-16.05,25.08-31.25l12.02-1.88c.81-.13,1.57-.52,2.14-1.11l34.83-35.9,2.94,4.4c-6.69,6.41-10.28,15.85-8.81,25.69,2.41,16.1,17.46,27.24,33.56,24.83s27.24-17.46,24.83-33.56c-2.41-16.1-17.46-27.24-33.56-24.83Zm-79.37,11.33l14.7,22.83-4.79,.75c-2.33-6.84-7.05-12.44-13.05-15.96l3.13-7.62Zm2.26,24.77l-13.29,2.07,4.98-12.11c3.66,2.39,6.6,5.86,8.31,10.04Zm-17.04,30c-11.96,1.79-23.14-6.48-24.93-18.44-1.79-11.96,6.48-23.14,18.44-24.93,2.83-.42,5.61-.28,8.23,.34l-7.58,18.45c-.52,1.27-.32,2.72,.53,3.8,.84,1.07,2.2,1.61,3.54,1.4h.02l20.4-3.19c.45,11.03-7.5,20.89-18.66,22.56Zm37.05-34.22l-16.58-25.75,48.61-7.27-32.03,33.02Zm64.71,19c-11.96,1.79-23.14-6.48-24.93-18.44-1.02-6.83,1.25-13.41,5.6-18.13l12.25,18.32c.84,1.26,2.31,1.86,3.72,1.65,.54-.08,1.07-.28,1.55-.6,1.74-1.17,2.21-3.52,1.05-5.27l-12.51-18.71c2.07-1.07,4.35-1.83,6.78-2.19,11.96-1.79,23.14,6.48,24.93,18.44,1.79,11.96-6.48,23.14-18.44,24.93Z"/></g></g></svg>