<?xml version="1.0" encoding="utf-8"?>
<!-- Generator: Adobe Illustrator 26.2.1, SVG Export Plug-In . SVG Version: 6.00 Build 0)  -->
<svg version="1.1" id="Ebene_1" xmlns="http://www.w3.org/2000/svg" xmlns:xlink="http://www.w3.org/1999/xlink" x="0px" y="0px"
	 viewBox="0 0 1801.1 1459.8" style="enable-background:new 0 0 1801.1 1459.8;" xml:space="preserve">
<style type="text/css">
	.st0{fill:#2B9EB3;}
</style>
<g id="a">
</g>
<path class="st0" d="M613.4,26.8c-3.6,0.2-7,1.1-10.2,2.4L588.5,2c-0.7-1.3-2.1-2-3.6-1.9l-18.8,1.1c-2.1,0.1-3.7,1.9-3.6,4
	c0.1,2.1,1.9,3.7,4,3.6L583,7.8l4.4,8l-51.7,2.8l-4.2-8.1l9.3-0.5c2.1-0.1,3.7-1.9,3.6-4c-0.1-2.1-1.9-3.7-4-3.6l-15.2,0.9l0,0
	l-7.9,0.5c-2.1,0.1-3.7,1.9-3.6,4c0.1,2.1,1.9,3.7,4,3.6l5.5-0.3l5.9,11.4l-6.3,11.8c-3.7-1.5-7.9-2.2-12.2-1.9
	c-16.2,0.9-28.8,14.8-27.9,31c0.9,16.2,14.8,28.8,31,27.9c15.5-0.8,27.6-13.5,27.9-28.7l12.1-0.7c0.8-0.1,1.6-0.4,2.3-0.9l38.1-32.5
	l2.5,4.6c-7.2,5.8-11.7,14.8-11.2,24.7c0.9,16.2,14.8,28.8,31,27.9c16.2-0.9,28.8-14.8,27.9-31C643.7,38.5,629.7,25.9,613.4,26.8
	L613.4,26.8z M533.3,30.5l12.5,24.1l-4.8,0.3c-1.7-7-5.9-13-11.5-17.1L533.3,30.5L533.3,30.5z M533.3,55.4l-13.5,0.8l6.1-11.6
	C529.4,47.4,532,51.2,533.3,55.4z M513.5,83.7c-12,0.6-22.4-8.6-23.1-20.7c-0.6-12,8.6-22.4,20.7-23.1c2.9-0.2,5.6,0.2,8.1,1.1
	l-9.3,17.6c-0.6,1.2-0.6,2.6,0.1,3.9c0.7,1.1,2.1,1.8,3.4,1.7l0,0l20.6-1.3C533.6,74.1,524.8,83.1,513.5,83.7L513.5,83.7z
	 M553.6,53.1l-14.1-27.2l49.1-2.7L553.6,53.1L553.6,53.1z M616.2,78.2c-12,0.6-22.4-8.6-23.1-20.7c-0.4-6.9,2.5-13.3,7.3-17.5
	l10.5,19.3c0.7,1.3,2.1,2,3.6,1.9c0.5,0,1-0.1,1.6-0.5c1.9-1,2.5-3.3,1.6-5.1l-10.7-19.8c2.2-0.9,4.5-1.5,7-1.5
	c12-0.6,22.4,8.6,23.1,20.7C637.6,67.1,628.4,77.4,616.2,78.2L616.2,78.2z"/>
<path class="st0" d="M1801.1,1459.8v-1299c-257.5-56.9-566.2-90-898.3-90S258.4,104.3,0,161.8v1296.9L1801.1,1459.8L1801.1,1459.8z"
	/>
</svg>
