<?xml version="1.0" encoding="utf-8"?>
<!-- Generator: Adobe Illustrator 26.2.1, SVG Export Plug-In . SVG Version: 6.00 Build 0)  -->
<svg version="1.1" id="Ebene_1" xmlns="http://www.w3.org/2000/svg" xmlns:xlink="http://www.w3.org/1999/xlink" x="0px" y="0px"
	 viewBox="0 0 1280 867.7" style="enable-background:new 0 0 1280 867.7;" xml:space="preserve">
<style type="text/css">
	.st0{fill:#44AF69;}
</style>
<g id="a">
</g>
<path class="st0" d="M1280,867.7V140.3c-183-40.4-402.4-64-638.4-64S183.6,100.1,0,141v726L1280,867.7L1280,867.7z"/>
<path class="st0" d="M983,36c-3.6-0.3-7.1,0.2-10.4,1.3L961.1,8.5c-0.5-1.3-1.9-2.3-3.3-2.3L939,5c-2.1-0.1-3.9,1.4-4,3.5
	c-0.1,2.1,1.4,3.9,3.5,4l16.3,1l3.4,8.5L906.6,19l-3.2-8.5l9.3,0.5c2.1,0.1,3.9-1.4,4-3.5c0.1-2.1-1.4-3.9-3.5-4l-15.2-1l0,0
	L890.1,2c-2.1-0.1-3.9,1.4-4,3.5c-0.1,2.1,1.4,3.9,3.5,4l5.5,0.4l4.6,12l-7.5,11c-3.6-1.9-7.5-3-11.9-3.3
	C864.1,28.7,850,41.1,849,57.3s11.5,30.2,27.7,31.2c15.4,0.9,28.9-10.2,31-25.3l12.1,0.6c0.8,0.1,1.7-0.2,2.3-0.6l41.5-27.9l1.9,4.9
	c-7.9,4.9-13.4,13.4-14,23.3c-1,16.2,11.5,30.2,27.7,31.2c16.2,1,30.2-11.5,31.2-27.7C1011.7,51,999.2,37,983,36L983,36z M903,30.6
	l9.6,25.4l-4.9-0.2c-0.8-7.1-4.4-13.6-9.5-18.4L903,30.6L903,30.6z M900,55.3l-13.4-0.7l7.4-10.8C897.1,46.8,899.2,50.8,900,55.3z
	 M877.2,81.1c-12.1-0.7-21.2-11.2-20.5-23.2c0.7-12,11.2-21.2,23.2-20.5c2.8,0.2,5.5,0.9,8,2l-11.3,16.5c-0.8,1.2-0.9,2.6-0.3,3.8
	c0.6,1.2,1.8,2,3.1,2.1l0,0l20.6,1.1C898.3,73.7,888.4,81.7,877.2,81.1L877.2,81.1z M920.5,55.2l-10.9-28.7l49.1,3L920.5,55.2z
	 M979.8,87.3c-12.1-0.7-21.2-11.2-20.5-23.2c0.4-6.9,4-12.9,9.2-16.5l8.1,20.4c0.5,1.4,1.9,2.3,3.3,2.4c0.5,0,1.1-0.1,1.7-0.3
	c1.9-0.8,2.9-3,2.2-5l-8.3-20.9c2.3-0.6,4.7-0.8,7.1-0.7c12.1,0.7,21.2,11.2,20.5,23.2C1002.4,78.9,991.9,88.1,979.8,87.3
	L979.8,87.3z"/>
</svg>
