<?xml version="1.0" encoding="utf-8"?>
<!-- Generator: Adobe Illustrator 26.2.1, SVG Export Plug-In . SVG Version: 6.00 Build 0)  -->
<svg version="1.1" id="Ebene_1" xmlns="http://www.w3.org/2000/svg" xmlns:xlink="http://www.w3.org/1999/xlink" x="0px" y="0px"
	 viewBox="0 0 769.9 866.4" style="enable-background:new 0 0 769.9 866.4;" xml:space="preserve">
<style type="text/css">
	.st0{fill:#FCAB10;}
</style>
<g id="a">
</g>
<path class="st0" d="M684.1,41c-3.6-0.5-7.1-0.3-10.4,0.4l-9.3-29.5c-0.4-1.4-1.7-2.4-3.1-2.6l-18.6-2.6c-2.1-0.3-4,1.2-4.3,3.2
	c-0.3,2.1,1.2,4,3.2,4.3l16.3,2.2l2.7,8.7l-51.3-7.1l-2.6-8.7l9.2,1.3c2.1,0.3,4-1.2,4.3-3.2c0.3-2.1-1.2-4-3.2-4.3l-15.1-2.1l0,0
	L594.1,0c-2.1-0.3-4,1.2-4.3,3.2c-0.3,2.1,1.2,4,3.2,4.3l5.5,0.7l3.6,12.4l-8.4,10.5c-3.4-2.1-7.3-3.6-11.6-4.2
	c-16.1-2.2-31.1,9.1-33.3,25.2c-2.2,16.1,9.1,31.1,25.2,33.3c15.3,2.1,29.6-8,32.9-22.9l12.1,1.6c0.8,0.1,1.7-0.1,2.4-0.5L665,39
	l1.6,5c-8.2,4.3-14.3,12.3-15.7,22.2c-2.2,16.1,9.1,31.1,25.2,33.3c16.1,2.2,31.1-9.1,33.3-25.2C711.6,58.1,700.3,43.2,684.1,41
	L684.1,41z M604.8,29.6l7.7,26l-4.8-0.6c-0.3-7.2-3.3-13.9-8-19L604.8,29.6z M600,54l-13.3-1.8l8.2-10.2
	C597.7,45.3,599.5,49.5,600,54z M575.2,78c-12-1.6-20.4-12.7-18.7-24.7s12.7-20.4,24.7-18.7c2.8,0.4,5.5,1.3,7.8,2.6l-12.5,15.6
	c-0.9,1.1-1.1,2.5-0.6,3.8c0.5,1.3,1.7,2.2,3,2.3l0,0l20.5,2.7C596.8,72.3,586.4,79.5,575.2,78z M620.4,55.5l-8.7-29.4l48.7,6.7
	L620.4,55.5z M677.1,92c-12-1.6-20.4-12.7-18.7-24.7c0.9-6.8,5-12.5,10.5-15.8l6.6,21c0.5,1.4,1.7,2.4,3.1,2.6
	c0.5,0.1,1.1,0,1.7-0.1c2-0.6,3.1-2.8,2.5-4.8L676,48.7c2.3-0.4,4.7-0.5,7.1-0.2c12,1.6,20.4,12.7,18.7,24.7S689.1,93.6,677.1,92
	L677.1,92z"/>
<path class="st0" d="M769.9,866.4V114.2c-110-24.3-242-38.5-384-38.5S110.4,90,0,114.6v751.3L769.9,866.4z"/>
</svg>
