<?xml version="1.0" encoding="utf-8"?>
<!-- Generator: Adobe Illustrator 26.2.1, SVG Export Plug-In . SVG Version: 6.00 Build 0)  -->
<svg version="1.1" id="Ebene_1" xmlns="http://www.w3.org/2000/svg" xmlns:xlink="http://www.w3.org/1999/xlink" x="0px" y="0px"
	 viewBox="0 0 390 574.3" style="enable-background:new 0 0 390 574.3;" xml:space="preserve">
<style type="text/css">
	.st0{fill:#44AF69;}
</style>
<g id="a">
</g>
<path class="st0" d="M195.5,43.3C123.2,43.3,55.9,50.6,0,63v12.8v168.1v14.7v43.6v272.1h390V302.2v-43.4v-14.9V75.8v-13
	C334.3,50.5,267.4,43.3,195.5,43.3z"/>
<path class="st0" d="M312.8,19.5c-1.9-0.2-3.8,0-5.5,0.6l-5.7-15.4c-0.2-0.8-1-1.2-1.8-1.3l-10-0.8c-1.1-0.1-2.1,0.7-2.1,1.9
	c-0.1,1.1,0.7,2.1,1.9,2.1l8.6,0.7l1.7,4.6l-27.3-2.2L271,5l4.9,0.4c1.1,0.1,2.1-0.7,2.1-1.9c0.1-1.1-0.7-2.1-1.9-2.1l-8-0.7l0,0
	L264,0.4c-1.1-0.1-2.1,0.7-2.1,1.9c-0.1,1,0.7,2,1.8,2l2.9,0.3l2.3,6.4l-4.1,5.8c-1.8-1-3.9-1.7-6.3-1.8
	c-8.6-0.7-16.1,5.7-16.8,14.3s5.7,16.1,14.3,16.8c8.1,0.7,15.4-5.1,16.7-13.1l6.4,0.5c0.4,0,0.8-0.1,1.2-0.4l22.4-14.3l1,2.7
	c-4.2,2.5-7.2,7-7.7,12.2c-0.7,8.6,5.7,16.1,14.3,16.8c8.6,0.7,16.1-5.7,16.8-14.3C327.8,27.8,321.3,20.2,312.8,19.5z M270.5,15.7
	l4.8,13.6l-2.5-0.2c-0.4-3.9-2.1-7.3-4.8-9.8L270.5,15.7z M268.6,28.7l-7.1-0.5l4.1-5.7C267.2,24.2,268.3,26.4,268.6,28.7z
	 M256.3,42.1c-6.4-0.5-11.2-6.2-10.6-12.6c0.5-6.4,6.2-11.2,12.6-10.6c1.5,0.1,3,0.5,4.2,1.2l-6.1,8.6c-0.4,0.6-0.5,1.3-0.2,2
	c0.3,0.7,0.9,1.1,1.7,1.2l0,0l10.9,0.8C267.5,38.5,262.2,42.7,256.3,42.1z M279.5,29l-5.4-15.3l25.9,2.1L279.5,29z M310.5,46.6
	c-6.4-0.5-11.2-6.2-10.6-12.6c0.3-3.6,2.3-6.8,5.1-8.6l4.1,10.9c0.2,0.8,1,1.2,1.8,1.3c0.3,0.1,0.6,0,0.8-0.1c1-0.4,1.5-1.5,1.2-2.6
	l-4.2-11.1c1.2-0.3,2.4-0.4,3.8-0.3c6.4,0.5,11.2,6.2,10.6,12.6C322.5,42.4,316.9,47.1,310.5,46.6z"/>
</svg>
