<?xml version="1.0" encoding="UTF-8"?><svg xmlns="http://www.w3.org/2000/svg" viewBox="0 0 94.58 94.58"><defs><style>.d{fill:#fff;}.e{fill:#fcab10;}</style></defs><g id="a"/><g id="b"><g id="c"><circle class="e" cx="47.29" cy="47.29" r="47.29"/><g><path class="d" d="M69.79,26.05c-3.05,.98-7.03,2.72-10.43,5.68-5.66,4.93,.07-6.29,5.26-10.58-3.96-2.9-9.92-5.38-17.33-5.32-7.41-.06-13.37,2.42-17.33,5.32,5.19,4.28,10.91,15.51,5.26,10.58-3.4-2.96-7.38-4.69-10.43-5.68-4.26,5.22-6.6,10.45-5.47,17.96,0,0,.02,.81,.27,1.38,.24,.5,.69,.84,1.43,.93,3.78,.42,6.61-.42,8.5-2.08,.75-.66,1.34-1.63,1.79-2.58,.52-1.09,1.65-1.8,2.9-1.88,3.4-.22,8.85-.53,13.07-.53s9.67,.31,13.07,.53c1.25,.08,2.38,.79,2.9,1.88,.45,.94,1.05,1.92,1.79,2.58,1.89,1.66,4.72,2.49,8.5,2.08,.75-.08,1.19-.43,1.43-.93,.25-.57,.27-1.38,.27-1.38,1.13-7.51-1.21-12.74-5.47-17.96Z"/><path class="d" d="M72.48,50.98c-.84,0-.24,.3-1.11,.41-.17,.02-1.1,.03-1.26,.05l-3.86-.15c-2.43-.46-3.33-1.57-4.39-2.6-.81-.79-1.54-1.92-2.16-3.36-.11-.26-.39-.45-.7-.47l-1.35-.1c-2.72-.2-7.11-.43-10.32-.43s-7.6,.23-10.32,.43l-1.35,.1c-.31,.02-.59,.21-.7,.47-.62,1.44-1.35,2.57-2.16,3.36-1.07,1.03-1.96,2.14-4.39,2.6l-3.86,.15c-.17-.02-1.09-.03-1.26-.05-.88-.11-.27-.41-1.11-.41-1.19,0-1.66,2.85-1.66,3.76,0,5.64,3.8,8.86,5.33,8.87,1.29,9.33,11.19,15.14,21.5,15.14s20.21-5.81,21.5-15.14c1.53-.01,5.33-3.24,5.33-8.87,0-.91-.47-3.76-1.66-3.76Zm-39.73,4.12c0-2.15,1.74-3.89,3.89-3.89s3.89,1.74,3.89,3.89-1.74,3.89-3.89,3.89-3.89-1.74-3.89-3.89Zm25.57,11.09c-.11,.29-2.75,7.19-10.87,7.19s-11.01-6.89-11.12-7.18c-.36-.96,.13-2.03,1.09-2.38,.96-.36,2.02,.13,2.38,1.08,.09,.22,1.94,4.78,7.65,4.78s7.32-4.58,7.4-4.78c.37-.95,1.43-1.43,2.39-1.07,.95,.36,1.44,1.42,1.08,2.37Zm-.32-7.2c-2.15,0-3.89-1.74-3.89-3.89s1.74-3.89,3.89-3.89,3.89,1.74,3.89,3.89-1.74,3.89-3.89,3.89Z"/></g></g></g></svg>