<?xml version="1.0" encoding="UTF-8"?><svg xmlns="http://www.w3.org/2000/svg" viewBox="0 0 94.58 94.58"><defs><style>.d{fill:#fff;}.e{fill:#44af69;}</style></defs><g id="a"/><g id="b"><g id="c"><circle class="e" cx="47.29" cy="47.29" r="47.29"/><g><path class="d" d="M81.66,40.75l-25.03-2.93v-9.78c0-1.24-1-2.24-2.24-2.24h-6.72c-.83,0-1.49,.67-1.49,1.49v.75c0,.83,.67,1.49,1.49,1.49h5.23v16.03l-13.95-2.05-1.23-4.27h3.6c.41,0,.75-.33,.75-.75,0-1.65-1.34-2.99-2.99-2.99h-6.35c-.62,0-1.12,.5-1.12,1.12v1.49c0,.62,.5,1.12,1.12,1.12h1.11l1.91,6.64-4.3,3.52c-2.16-2.56-5.39-4.19-8.99-4.19-6.49,0-11.77,5.28-11.77,11.77s5.28,11.77,11.77,11.77c5.66,0,10.39-4.01,11.52-9.34h23.73c1.18-4.82,5.52-8.42,10.71-8.42s9.53,3.59,10.71,8.42h2.56c1.24,0,2.24-1,2.24-2.24v-14.2c0-1.24-1-2.24-2.24-2.24Zm-59.21,23.53c-4.02,0-7.28-3.27-7.28-7.28s3.27-7.29,7.28-7.29c2.21,0,4.19,.99,5.53,2.55l-4.66,3.82c-.6,.49-.83,1.33-.59,2.08,.25,.75,.92,1.26,1.68,1.26h4.9c-1,2.82-3.7,4.86-6.86,4.86Zm7.12-8.59l.04-.03v.03h-.04Zm4.57,0c-.12-1.09-.39-2.13-.79-3.11l3.48-2.86,1.71,5.96h-4.41Zm18.75,0h-10.46l-2.36-8.23,12.82,1.88v6.35Z"/><circle class="d" cx="68.4" cy="62.04" r="6.72"/></g></g></g></svg>