<?xml version="1.0" encoding="UTF-8"?><svg xmlns="http://www.w3.org/2000/svg" viewBox="0 0 94.58 94.58"><defs><style>.d{fill:#fff;}.e{fill:#f8333c;}</style></defs><g id="a"/><g id="b"><g id="c"><circle class="e" cx="47.29" cy="47.29" r="47.29"/><path class="d" d="M26.81,22.37c-2.62,.1-4.72,2.2-4.82,4.82,0,0-.7,17.58,1.07,19.36l24.88,24.88c2.45,2.45,6.43,2.45,8.89,0l14.22-14.22c2.45-2.45,2.45-6.43,0-8.89l-24.88-24.88c-1.78-1.78-19.36-1.07-19.36-1.07Zm11.36,16.18c-1.96,1.96-5.15,1.96-7.11,0-1.96-1.96-1.96-5.15,0-7.11,1.96-1.96,5.15-1.96,7.11,0,1.96,1.96,1.96,5.15,0,7.11Z"/></g></g></svg>