<?xml version="1.0" encoding="UTF-8"?><svg xmlns="http://www.w3.org/2000/svg" viewBox="0 0 94.58 94.58"><defs><style>.d{fill:#fff;}.e{fill:#2b9eb3;}</style></defs><g id="a"/><g id="b"><g id="c"><circle class="e" cx="47.29" cy="47.29" r="47.29"/><path class="d" d="M26.75,20.07c-.48,.15-.55,.77-.13,1.19l7.45,7.45c.64,.64,.58,.58,.22,2.09l-1.19,5.02c-.15,.64-.65,1.14-1.3,1.3l-5.02,1.19c-1.52,.36-1.46,.42-2.1-.22l-7.18-7.18c-.43-.43-1.08-.34-1.2,.16-1.19,4.76,0,9.91,3.62,13.52,3.98,3.98,9.81,5.01,14.94,3.17,.27-.09,.56-.03,.76,.16l26.36,26.36c1.71,1.71,5.51,.68,7.21-1.03l.52-.52c1.71-1.71,2.74-5.51,1.03-7.21l-26.36-26.36c-.2-.2-.26-.49-.16-.76,1.83-5.14,.8-10.97-3.17-14.94-3.81-3.81-9.31-4.92-14.29-3.4Zm40.12,50.36c-1.42,1.42-3.73,1.42-5.15,0-1.42-1.42-1.42-3.73,0-5.15,1.42-1.42,3.73-1.42,5.15,0,1.42,1.42,1.42,3.73,0,5.15Z"/></g></g></svg>